# xmcd CD database file
#
# Track frame offsets:
#	183
#	15140
#	38748
#	53948
#	65863
#	94388
#	113383
#	129523
#	141060
#	154738
#
# Disc length: 2540 seconds
#
# Revision: 3
# Processed by: cddbd v1.5.2PL0 Copyright (c) Steve Scherf et al.
# Submitted via: CDex 2.00
#
DISCID=7d09ea0a
DTITLE=Julie Driscoll, Brian Auger and The Trinity - Open
DYEAR=1968
DGENRE=Jazz/Rock
TTITLE0=In And Out (John L Montgomery)
TTITLE1=Isola Natale (Brian Auger)
TTITLE2=Black Cat (Brian Auger)
TTITLE3=Lament For Miss Baker (Brian Auger)
TTITLE4=Goodbye Jungle Telegraph (Brian Auger)
TTITLE5=Tramp (Lowell Fulsom, James McCracklin)
TTITLE6=Why (Am I Treated So Bad) (Roebuck Staples)
TTITLE7=A Kind Of Love In (Brian Auger, R Sutton)
TTITLE8=Break It Up (Brian Auger, R Sutton)
TTITLE9=Season Of The Witch (Donovan Leitch)
EXTD=YEAR: 1968
EXTT0=
EXTT1=
EXTT2=
EXTT3=
EXTT4=
EXTT5=
EXTT6=
EXTT7=
EXTT8=
EXTT9=
PLAYORDER=
